<svg width="26" height="20" viewBox="0 0 26 20" fill="none" xmlns="http://www.w3.org/2000/svg">
<path d="M5.02682 12.8125C4.50628 12.8125 4.08429 13.2322 4.08429 13.75C4.08429 14.2678 4.50628 14.6875 5.02682 14.6875H12.567C13.0876 14.6875 13.5096 14.2678 13.5096 13.75C13.5096 13.2322 13.0876 12.8125 12.567 12.8125H5.02682Z" fill="#424242"/>
<path fill-rule="evenodd" clip-rule="evenodd" d="M3.77011 0C1.68794 0 0 1.67894 0 3.75V16.25C0 18.3211 1.68794 20 3.77011 20H21.3639C23.4462 20 25.134 18.3211 25.134 16.25V3.75C25.134 1.67894 23.4462 0 21.3639 0H3.77011ZM21.3639 1.875H3.77011C2.72902 1.875 1.88505 2.71446 1.88505 3.75V5.3125H23.249V3.75C23.249 2.71446 22.405 1.875 21.3639 1.875ZM1.88505 16.25V7.1875H23.249V16.25C23.249 17.2855 22.405 18.125 21.3639 18.125H3.77011C2.72902 18.125 1.88505 17.2855 1.88505 16.25Z" fill="#424242"/>
</svg>
