<svg width="26" height="25" viewBox="0 0 26 25" fill="none" xmlns="http://www.w3.org/2000/svg">
<path d="M7.62554 15.1282L7.59844 15.1813L7.58457 15.2392L7.55091 15.3798L7.55085 15.3798L7.54911 15.3877C7.53763 15.4393 7.52851 15.5008 7.52851 15.5694C7.52851 16.1342 7.96555 16.6505 8.5712 16.6505H20.3687V16.697H20.8687H21.2768C21.4065 16.697 21.5692 16.8205 21.5692 17.0454C21.5692 17.2704 21.4065 17.3939 21.2768 17.3939H20.8687H18.7305H8.11536C7.37575 17.3939 6.71592 16.7381 6.71592 15.86C6.71592 15.5909 6.77931 15.3357 6.89434 15.121L6.8944 15.121L6.89813 15.1138L8.36448 12.2663L8.36484 12.2656C8.47436 12.0521 8.48568 11.7944 8.38402 11.5683L4.4767 2.74979C4.4766 2.74956 4.4765 2.74933 4.4764 2.74911C4.35781 2.48034 4.09134 2.28499 3.77378 2.28499H2.37434V2.25712H1.87434H1.83959C1.70998 2.25712 1.54724 2.13367 1.54724 1.90868C1.54724 1.68371 1.70996 1.56027 1.83959 1.56027H1.87434H2.37434V1.54166H4.65316L5.4694 3.39984L5.46939 3.39984L5.47049 3.40231C5.58945 3.6692 5.85428 3.86611 6.17358 3.86611H22.2255C22.3664 3.86611 22.5395 4.00044 22.5395 4.23777C22.5395 4.32501 22.5203 4.3871 22.5034 4.41871L22.5033 4.41868L22.4995 4.42599L18.6127 11.9688L18.6118 11.9707C18.3638 12.457 17.8937 12.7438 17.3966 12.7438H9.31036C9.01383 12.7438 8.75648 12.915 8.6279 13.1653L8.62736 13.1664L7.62554 15.1282Z" stroke="#424242"/>
<path d="M8.11546 19.3095C6.92153 19.3095 5.95551 20.3555 5.95551 21.6339C5.95551 22.9124 6.92261 23.9584 8.11546 23.9584C9.31048 23.9584 10.2863 22.9124 10.2863 21.6339C10.2863 20.3555 9.3094 19.3095 8.11546 19.3095Z" fill="#424242"/>
<path d="M18.9694 19.3095C17.7755 19.3095 16.8094 20.3555 16.8094 21.6339C16.8094 22.9124 17.7766 23.9584 18.9694 23.9584C20.1623 23.9584 21.1402 22.9124 21.1402 21.6339C21.1402 20.3555 20.1623 19.3095 18.9694 19.3095Z" fill="#424242"/>
</svg>
