<svg width="26" height="25" viewBox="0 0 26 25" fill="none" xmlns="http://www.w3.org/2000/svg">
<path d="M11.3265 9.41143C11.3265 10.4344 10.4927 11.2638 9.46421 11.2638C8.4357 11.2638 7.60193 10.4344 7.60193 9.41143C7.60193 8.3884 8.4357 7.55908 9.46421 7.55908C10.4927 7.55908 11.3265 8.3884 11.3265 9.41143Z" fill="#424242"/>
<path d="M17.5341 15.5858C17.5341 16.6087 16.7003 17.4381 15.6719 17.4381C14.6434 17.4381 13.8096 16.6087 13.8096 15.5858C13.8096 14.5628 14.6434 13.7334 15.6719 13.7334C16.7003 13.7334 17.5341 14.5628 17.5341 15.5858Z" fill="#424242"/>
<path fill-rule="evenodd" clip-rule="evenodd" d="M10.3526 0.811247C11.6286 -0.270416 13.5054 -0.270416 14.7816 0.811247L16.3601 2.14931C16.6086 2.36 16.9177 2.48733 17.2433 2.51316L19.3107 2.67727C20.982 2.80992 22.3091 4.12998 22.4424 5.79234L22.6074 7.84875C22.6333 8.17255 22.7615 8.47995 22.9733 8.72719L24.3185 10.2973C25.4059 11.5666 25.4059 13.4334 24.3185 14.7027L22.9733 16.2729C22.7615 16.5201 22.6333 16.8274 22.6074 17.1512L22.4424 19.2077C22.3091 20.87 20.982 22.1901 19.3107 22.3228L17.2433 22.4869C16.9177 22.5127 16.6086 22.64 16.3601 22.8507L14.7816 24.1888C13.5054 25.2705 11.6286 25.2705 10.3526 24.1888L8.77398 22.8507C8.52541 22.64 8.21638 22.5127 7.89084 22.4869L5.8234 22.3228C4.15213 22.1901 2.82499 20.87 2.69162 19.2077L2.52664 17.1512C2.50067 16.8274 2.37265 16.5201 2.16084 16.2729L0.815596 14.7027C-0.271866 13.4334 -0.271866 11.5666 0.815596 10.2973L2.16084 8.72719C2.37265 8.47995 2.50067 8.17255 2.52664 7.84875L2.69162 5.79234C2.82499 4.12998 4.15213 2.80992 5.8234 2.67727L7.89084 2.51316C8.21638 2.48733 8.52541 2.36 8.77398 2.14931L10.3526 0.811247ZM13.5736 2.2211C12.9935 1.72943 12.1405 1.72943 11.5605 2.2211L9.98188 3.55916C9.43505 4.02268 8.75516 4.30281 8.03897 4.35965L5.97154 4.52375C5.21187 4.58405 4.60863 5.18407 4.54801 5.93969L4.38302 7.9961C4.32588 8.70846 4.04425 9.38473 3.57824 9.92864L2.23301 11.4987C1.73871 12.0757 1.73871 12.9243 2.23301 13.5012L3.57824 15.0714C4.04425 15.6153 4.32588 16.2915 4.38302 17.0039L4.54801 19.0603C4.60863 19.8159 5.21187 20.4159 5.97154 20.4762L8.03897 20.6403C8.75516 20.6973 9.43505 20.9773 9.98188 21.4409L11.5605 22.7789C12.1405 23.2705 12.9935 23.2705 13.5736 22.7789L15.1522 21.4409C15.6989 20.9773 16.3789 20.6973 17.095 20.6403L19.1625 20.4762C19.9222 20.4159 20.5255 19.8159 20.5861 19.0603L20.7511 17.0039C20.8082 16.2915 21.0898 15.6153 21.5558 15.0714L22.901 13.5012C23.3954 12.9243 23.3954 12.0757 22.901 11.4987L21.5558 9.92864C21.0898 9.38473 20.8082 8.70846 20.7511 7.9961L20.5861 5.93969C20.5255 5.18407 19.9222 4.58405 19.1625 4.52375L17.095 4.35965C16.3789 4.30281 15.6989 4.02268 15.1522 3.55916L13.5736 2.2211Z" fill="#424242"/>
<path fill-rule="evenodd" clip-rule="evenodd" d="M16.268 8.08236C16.6631 8.40984 16.7165 8.99384 16.3872 9.3868L10.1796 16.7963C9.85035 17.1892 9.26321 17.2423 8.86815 16.9148C8.47308 16.5873 8.41971 16.0033 8.74892 15.6104L14.9566 8.20095C15.2857 7.80799 15.8728 7.75491 16.268 8.08236Z" fill="#424242"/>
</svg>
