<svg width="26" height="25" viewBox="0 0 26 25" fill="none" xmlns="http://www.w3.org/2000/svg">
<path fill-rule="evenodd" clip-rule="evenodd" d="M13.3712 3.125L11.8771 1.26739C11.2328 0.466325 10.2574 0 9.22607 0H8.97276C7.23762 0 5.83101 1.39911 5.83101 3.125C5.83101 3.56944 5.92428 3.99221 6.09243 4.375H3.3176C1.92949 4.375 0.804199 5.49429 0.804199 6.875V10.625C0.804199 11.5504 1.30964 12.3582 2.0609 12.7905V21.25C2.0609 23.3211 3.74884 25 5.83101 25H20.9114C22.9937 25 24.6815 23.3211 24.6815 21.25V12.7905C25.4328 12.3582 25.9382 11.5504 25.9382 10.625V6.875C25.9382 5.49429 24.813 4.375 23.4248 4.375H20.65C20.8182 3.99221 20.9114 3.56944 20.9114 3.125C20.9114 1.39911 19.5048 0 17.7697 0H17.5163C16.485 0 15.5096 0.466325 14.8653 1.26739L13.3712 3.125ZM14.7799 4.375H17.7697C18.4638 4.375 19.0264 3.81535 19.0264 3.125C19.0264 2.43465 18.4638 1.875 17.7697 1.875H17.5163C17.0576 1.875 16.6238 2.0824 16.3373 2.43869L14.7799 4.375ZM3.3176 6.25C2.97058 6.25 2.68925 6.52983 2.68925 6.875V10.625C2.68925 10.9701 2.97058 11.25 3.3176 11.25H12.4287V6.25H3.3176ZM14.3138 6.25V11.25H23.4248C23.7718 11.25 24.0532 10.9701 24.0532 10.625V6.875C24.0532 6.52983 23.7718 6.25 23.4248 6.25H14.3138ZM7.71606 3.125C7.71606 3.81535 8.27871 4.375 8.97276 4.375H11.9626L10.4052 2.43869C10.1186 2.0824 9.68479 1.875 9.22607 1.875H8.97276C8.27871 1.875 7.71606 2.43465 7.71606 3.125ZM12.4287 13.125H3.94596V21.25C3.94596 22.2855 4.78992 23.125 5.83101 23.125H12.4287V13.125ZM14.3138 23.125V13.125H22.7965V21.25C22.7965 22.2855 21.9525 23.125 20.9114 23.125H14.3138Z" fill="#424242"/>
</svg>
