<svg width="20" height="20" viewBox="0 0 20 20" fill="none" xmlns="http://www.w3.org/2000/svg">
<path fill-rule="evenodd" clip-rule="evenodd" d="M3 19.9639C1.34315 19.9639 0 18.6208 0 16.9639V9.30001C0 8.44951 0.36096 7.63904 0.99311 7.07011L7.9931 0.770124C9.134 -0.256706 10.866 -0.256706 12.0069 0.770114L19.0069 7.07011C19.639 7.63904 20 8.44951 20 9.30001V16.9639C20 18.6208 18.6569 19.9639 17 19.9639H3ZM18.5 9.30001V16.9639C18.5 17.7923 17.8284 18.4639 17 18.4639H14V12.9639C14 11.307 12.6569 9.96391 11 9.96391H9C7.34315 9.96391 6 11.307 6 12.9639V18.4639H3C2.17157 18.4639 1.5 17.7923 1.5 16.9639V9.30001C1.5 8.87481 1.68048 8.46951 1.99655 8.18501L8.9966 1.88506C9.567 1.37164 10.433 1.37164 11.0034 1.88506L18.0034 8.18501C18.3195 8.46951 18.5 8.87481 18.5 9.30001ZM7.5 18.4639V12.9639C7.5 12.1355 8.1716 11.4639 9 11.4639H11C11.8284 11.4639 12.5 12.1355 12.5 12.9639V18.4639H7.5Z" fill="#085CEA"/>
</svg>
